# AST/ASF file generated using VICON BodyLanguage
# -----------------------------------------------
:version 1.10
:name VICON
:units
  mass 1.0
  length 0.45
  angle deg
:documentation
   .ast/.asf automatically generated from VICON data using
   VICON BodyBuilder and BodyLanguage model FoxedUp or BRILLIANT.MOD
:root
   order TX TY TZ RX RY RZ
   axis XYZ
   position 0 0 0  
   orientation 0 0 0 
:bonedata
  begin
     id 1 
     name lhipjoint
     direction 0.575328 -0.747301 0.332475 
     length 2.40933 
     axis 0 0 0  XYZ
  end
  begin
     id 2 
     name lfemur
     direction 0.34202 -0.939693 0  
     length 7.31453  
     axis 0 0 20  XYZ
    dof rx ry rz
    limits (-160.0 20.0)
           (-70.0 70.0)
           (-60.0 70.0)
  end
  begin
     id 3 
     name ltibia
     direction 0.34202 -0.939693 0   
     length 7.82185   
     axis 0 0 20   XYZ
    dof rx
    limits (-10.0 170.0)
  end
  begin
     id 4 
     name lfoot
     direction 0.0795993 -0.218697 0.972541   
     length 2.19173   
     axis -90 7.62852e-016 20   XYZ
    dof rx rz
    limits (-45.0 90.0)
           (-70.0 20.0)
  end
  begin
     id 5 
     name ltoes
     direction 1.53537e-011 -4.21894e-011 1   
     length 1.10023   
     axis -90 7.62852e-016 20   XYZ
    dof rx
    limits (-90.0 20.0)
  end
  begin
     id 6 
     name rhipjoint
     direction -0.513884 -0.783789 0.348708   
     length 2.29716  
     axis 0 0 0  XYZ 
  end
  begin
     id 7 
     name rfemur
     direction -0.34202 -0.939693 0   
     length 7.59573   
     axis 0 0 -20   XYZ
    dof rx ry rz
    limits (-160.0 20.0)
           (-70.0 70.0)
           (-70.0 60.0)
  end
  begin
     id 8 
     name rtibia
     direction -0.34202 -0.939693 0   
     length 7.66402   
     axis 0 0 -20   XYZ
    dof rx
    limits (-10.0 170.0)
 end
 begin
     id 9 
     name rfoot
     direction -0.137793 -0.378584 0.915253   
     length 2.27056  
     axis -90 -7.62852e-016 -20   XYZ
    dof rx rz
    limits (-45.0 90.0)
           (-20.0 70.0)
  end
  begin
     id 10 
     name rtoes
     direction -1.53493e-011 -4.22159e-011 1   
     length 1.11766   
     axis -90 -7.62852e-016 -20   XYZ
    dof rx
    limits (-90.0 20.0)
  end
  begin
     id 11 
     name lowerback
     direction -0.00732775 0.998356 -0.05685   
     length 2.16513   
     axis 0 0 0   XYZ
    dof rx ry rz
    limits (-20.0 45.0)
           (-30.0 30.0)
           (-30.0 30.0)
  end
  begin
     id 12 
     name upperback
     direction 0.0218081 0.999627 -0.0164647   
     length 2.16755   
     axis 0 0 0   XYZ
    dof rx ry rz
    limits (-20.0 45.0)
           (-30.0 30.0)
           (-30.0 30.0)
  end
  begin
     id 13 
     name thorax
     direction 0.02365 0.999661 0.0108914   
     length 2.16932   
     axis 0 0 0   XYZ
    dof rx ry rz
    limits (-20.0 45.0)
           (-30.0 30.0)
           (-30.0 30.0)
  end
  begin
     id 14 
     name lowerneck
     direction -0.0523929 0.978385 0.200044   
     length 1.63877   
     axis 0 0 0   XYZ
    dof rx ry rz
    limits (-20.0 45.0)
           (-30.0 30.0)
           (-30.0 30.0)
  end
  begin
     id 15 
     name upperneck
     direction 0.0448674 0.981321 -0.187074   
     length 1.69014   
     axis 0 0 0   XYZ
    dof rx ry rz
    limits (-20.0 45.0)
           (-30.0 30.0)
           (-30.0 30.0)
  end
  begin
     id 16
     name head
     direction 0.0199089 0.996118 -0.0857429  
     length 1.70094  
     axis 0 0 0   XYZ
    dof rx ry rz
    limits (-20.0 45.0)
           (-30.0 30.0)
           (-30.0 30.0)
  end
  begin
     id 17 
     name lclavicle
     direction 0.940366 0.30191 -0.156722  
     length 3.37521  
     axis 0 0 0   XYZ
    dof ry rz
    limits (-20.0 10.0)
           (0.0 20.0)
  end
  begin
     id 18 
     name lhumerus
     direction 1 -4.4897e-011 -1.7911e-027   
     length 5.25287   
     axis 180 -30 -90   XYZ
    dof rx ry rz
    limits (-60.0 90.0)
           (-90.0 90.0)
           (-90.0 90.0)
  end
  begin
     id 19
     name lradius
     direction 1 -4.48951e-011 1.04424e-027   
     length 3.51014   
     axis 180 -30 -90   XYZ
    dof rx
    limits (-10.0 170.0)
  end
  begin
     id 20
     name lwrist
     direction 1 -4.48997e-011 -9.5942e-028   
     length 1.75507   
     axis 8.48502e-016 90 90   XYZ
    dof ry
    limits (-180.0 0.0)
 end
  begin
     id 21 
     name lhand
     direction 1 -4.48831e-011 -1.90777e-027   
     length 0.706179   
     axis 1.22306e-015 90 90   XYZ
    dof rx rz
    limits (-90.0 90.0)
           (-45.0 45.0)
  end
  begin
     id 22 
     name lfingers
     direction 1 -4.49108e-011 -3.85244e-027   
     length 0.569339   
     axis 2.44611e-015 90 90   XYZ
    dof rx
    limits (0.0 90.0)
  end
  begin
     id 23
     name lthumb
     direction 0.707107 -6.34953e-011 0.707107   
     length 0.817461   
     axis -90 45 -1.62303e-014   XYZ
    dof rx rz
    limits (-45.0 45.0)
           (-45.0 45.0)
  end
  begin
     id 24 
     name rclavicle
     direction -0.905329 0.382405 -0.184787   
     length 3.30787  
     axis 0 0 0   XYZ 
    dof ry rz
    limits (-10.0 20.0)
           (-20.0 0.0)
  end
  begin
     id 25 
     name rhumerus
     direction -1 -4.48953e-011 -9.15316e-029  
     length 5.28721   
     axis 180 30 90   XYZ
    dof rx ry rz
    limits (-90.0 60.0)
           (-90.0 90.0)
           (-90.0 90.0)
  end
  begin
     id 26 
     name rradius
     direction -1 -4.48987e-011 9.37824e-028   
     length 3.50544   
     axis 180 30 90   XYZ
    dof rx
    limits (-10.0 170.0)
  end
  begin
     id 27 
     name rwrist
     direction -1 -4.48967e-011 -9.58414e-028   
     length 1.75272   
     axis 8.48502e-016 -90 -90   XYZ
    dof ry
    limits (-180.0 0.0)
  end
  begin
     id 28
     name rhand
     direction -1 -4.48904e-011 -1.91266e-027   
     length 0.884996   
     axis 1.22306e-015 -90 -90   XYZ
    dof rx rz
    limits (-90.0 90.0)
           (-45.0 45.0)
  end
  begin
     id 29
     name rfingers
     direction -1 -4.4909e-011 -3.85015e-027   
     length 0.713507   
     axis 2.44611e-015 -90 -90   XYZ
    dof rx
    limits (0.0 90.0)
  end
  begin
     id 30
     name rthumb
     direction -0.707107 -6.34853e-011 0.707107   
     length 1.02446   
     axis -90 -45 1.62303e-014   XYZ
    dof rx rz
    limits (-45.0 45.0)
           (-45.0 45.0)
  end
:hierarchy
  begin
    root lhipjoint rhipjoint lowerback
    lhipjoint lfemur
    lfemur ltibia
    ltibia lfoot
    lfoot ltoes
    rhipjoint rfemur
    rfemur rtibia
    rtibia rfoot
    rfoot rtoes
    lowerback upperback
    upperback thorax
    thorax lowerneck lclavicle rclavicle
    lowerneck upperneck
    upperneck head
    lclavicle lhumerus
    lhumerus lradius
    lradius lwrist
    lwrist lhand lthumb
    lhand lfingers
    rclavicle rhumerus
    rhumerus rradius
    rradius rwrist
    rwrist rhand rthumb
    rhand rfingers
  end

#!OML:ASF F:\twosubjects\two\Thursday\Session 1\justin.ASF
:FULLY-SPECIFIED
:DEGREES
33
root 11.5634 18.4281 6.37486 -170.24 -11.1079 180.358
lowerback 0.343752 -0.458345 0.541528
upperback 0.604979 -0.787479 4.15969
thorax 0.480165 -0.471772 3.97325
lowerneck -19.5212 -5.11034 -11.6101
upperneck 26.8903 -6.64185 6.91246
head 12.8527 -3.58137 3.42412
rclavicle 5.36719e-015 2.06736e-014
rhumerus 31.0891 -1.78302 -63.721
rradius 80.7114
rwrist -26.3263
rhand -44.4647 23.6782
rfingers 7.12502
rthumb -17.2685 -5.57462
lclavicle 5.36719e-015 2.06736e-014
lhumerus 31.5221 -2.78395 68.397
lradius 75.3791
lwrist 20.8755
lhand -20.1486 37.145
lfingers 7.12502
lthumb 6.19634 67.0343
rfemur -27.7469 -6.36271 25.4504
rtibia 27.7912
rfoot -9.04671 -14.0215
rtoes 3.41791
lfemur -3.86226 -0.260672 -15.2529
ltibia 34.4088
lfoot 20.3968 -26.6891
ltoes 5.70538
34
root 11.5791 18.4385 6.29726 -170.121 -11.2124 180.21
lowerback 0.36197 -0.413207 0.410574
upperback 0.746974 -0.73308 4.1723
thorax 0.613881 -0.44778 4.06002
lowerneck -19.4336 -5.15335 -11.6826
upperneck 26.6825 -6.73488 7.156
head 12.7739 -3.59045 3.51443
rclavicle -6.75868e-015 -6.36111e-015
rhumerus 32.0303 -1.72565 -64.0494
rradius 80.4444
rwrist -26.1308
rhand -45.0952 24.2813
rfingers 7.12502
rthumb -17.8753 -4.91715
lclavicle -6.75868e-015 -6.36111e-015
lhumerus 32.2566 -2.81897 68.5354
lradius 75.0386
lwrist 21.1684
lhand -20.3255 37.1008
lfingers 7.12502
lthumb 6.02559 66.9952
rfemur -27.497 -5.85042 25.1657
rtibia 27.6561
rfoot -9.4097 -14.5071
rtoes 5.18473
lfemur -4.73095 -0.018963 -15.1402
ltibia 35.4917
lfoot 23.0311 -25.9703
ltoes 8.25445
35
root 11.5914 18.4491 6.22231 -170.184 -11.4881 180.351
lowerback 0.590198 -0.353471 0.639367
upperback 0.858025 -0.662391 4.24776
thorax 0.593695 -0.416912 4.01081
lowerneck -19.1868 -5.35761 -11.7293
upperneck 26.4068 -7.05408 7.27245
head 12.6569 -3.71638 3.51048
rclavicle -2.16675e-014 -2.38542e-014
rhumerus 32.8774 -1.67259 -64.2874
rradius 80.1555
rwrist -26.3866
rhand -45.6797 25.4383
rfingers 7.12502
rthumb -18.4376 -3.70788
lclavicle -2.16675e-014 -2.38542e-014
lhumerus 33.0454 -2.99699 68.7872
lradius 74.519
lwrist 21.372
lhand -20.8476 37.3277
lfingers 7.12502
lthumb 5.52152 67.2358
rfemur -27.0942 -5.92386 25.3923
rtibia 27.537
rfoot -9.67149 -14.6331
rtoes 6.00427
lfemur -5.25355 -0.0570857 -14.6344
ltibia 36.5134
lfoot 25.027 -25.3954
ltoes 12.1432
36
root 11.5987 18.4561 6.15175 -170.237 -11.7141 180.583
lowerback 0.898797 -0.400276 0.955128
upperback 0.913218 -0.736999 4.42229
thorax 0.481136 -0.461543 4.01679
lowerneck -19.174 -5.35583 -11.9162
upperneck 26.3952 -7.02574 7.38659
head 12.6594 -3.70806 3.59178
rclavicle -1.19271e-015 1.11319e-014
rhumerus 33.9527 -1.37422 -64.7263
rradius 79.8807
rwrist -26.4734
rhand -46.2372 26.9194
rfingers 7.12502
rthumb -18.9738 -2.17512
lclavicle -1.19271e-015 1.11319e-014
lhumerus 33.6995 -2.83445 69.0883
lradius 73.8942
lwrist 21.5408
lhand -21.8566 37.9633
lfingers 7.12502
lthumb 4.54721 67.8945
rfemur -26.7954 -6.36186 25.8594
rtibia 27.4946
rfoot -9.57303 -14.4988
rtoes 4.54277
lfemur -5.72151 -0.138328 -14.0456
ltibia 37.5143
lfoot 24.8055 -26.6388
ltoes 12.3274
37
root 11.606 18.4714 6.08239 -170.136 -11.8952 180.76
lowerback 1.09974 -0.401006 1.27149
upperback 0.946437 -0.74408 4.51465
thorax 0.400828 -0.469392 3.93612
lowerneck -19.4074 -5.35551 -12.0261
upperneck 26.6048 -7.05218 7.60121
head 12.8084 -3.70476 3.69016
rclavicle -2.06736e-014 7.95139e-015
rhumerus 34.857 -1.22185 -65.1578
rradius 79.6727
rwrist -26.3779
rhand -46.8673 28.5459
rfingers 7.12502
rthumb -19.5797 -0.488123
lclavicle -2.06736e-014 7.95139e-015
lhumerus 34.3806 -2.7992 69.3883
lradius 73.3502
lwrist 21.6737
lhand -22.5953 38.6535
lfingers 7.12502
lthumb 3.83388 68.5988
rfemur -26.7247 -6.52519 26.214
rtibia 27.5263
rfoot -9.31694 -14.6139
rtoes 1.64176
lfemur -6.68085 -0.0203698 -13.6469
ltibia 38.5238
lfoot 27.9685 -25.3143
ltoes 15.7586
38
root 11.6146 18.4889 6.02229 -169.938 -12.1917 180.752
lowerback 1.39507 -0.288976 1.52328
upperback 0.921615 -0.575933 4.43237
thorax 0.196566 -0.381696 3.71007
lowerneck -19.8463 -5.53023 -11.7782
upperneck 27.0049 -7.40089 7.6334
head 13.0944 -3.82884 3.59784
rclavicle 8.74653e-015 -4.6118e-014
rhumerus 35.4388 -1.42863 -65.5092
rradius 79.4008
rwrist -26.7142
rhand -47.6299 30.6888
rfingers 7.12502
rthumb -20.3127 1.73102
lclavicle 8.74653e-015 -4.6118e-014
lhumerus 35.2337 -3.29611 69.6051
lradius 72.7341
lwrist 21.883
lhand -23.3381 38.947
lfingers 7.12502
lthumb 3.11659 68.904
rfemur -26.719 -6.79691 26.3299
rtibia 27.4915
rfoot -9.27215 -14.6781
rtoes 0.449589
lfemur -7.80851 0.00807718 -13.428
ltibia 39.549
lfoot 29.462 -25.4399
ltoes 15.6129
39
root 11.6215 18.4932 5.96843 -169.795 -12.4699 180.569
lowerback 1.88971 -0.253836 1.52976
upperback 0.819791 -0.49852 4.38714
thorax -0.190102 -0.339341 3.66375
lowerneck -20.0374 -5.58011 -11.5624
upperneck 27.2669 -7.51673 7.48196
head 13.2387 -3.88035 3.48063
rclavicle -3.97569e-015 7.63333e-014
rhumerus 36.0923 -1.50368 -65.9598
rradius 78.953
rwrist -26.3521
rhand -47.7526 29.7108
rfingers 7.12502
rthumb -20.4307 0.765644
lclavicle -3.97569e-015 7.63333e-014
lhumerus 35.7845 -3.70864 69.7336
lradius 72.1189
lwrist 22.2177
lhand -24.1016 39.2246
lfingers 7.12502
lthumb 2.37925 69.1911
rfemur -26.5676 -6.92852 26.1723
rtibia 27.3679
rfoot -9.29177 -14.8761
rtoes -0.177958
lfemur -8.6777 -0.181935 -13.3544
ltibia 40.5796
lfoot 30.0632 -25.5669
ltoes 16.7918
40
root 11.625 18.4888 5.90832 -169.71 -12.6452 180.472
lowerback 2.29571 -0.271273 1.5821
upperback 0.708223 -0.498808 4.40126
thorax -0.532548 -0.338348 3.65395
lowerneck -19.7888 -5.56167 -11.4907
upperneck 27.3184 -7.55574 7.40928
head 13.2055 -3.9144 3.4357
rclavicle 1.90833e-014 -7.95139e-014
rhumerus 36.5971 -1.13579 -66.1769
rradius 78.3379
rwrist -26.4436
rhand -48.1576 28.6828
rfingers 7.12502
rthumb -20.8198 -0.220106
lclavicle 1.90833e-014 -7.95139e-014
lhumerus 36.0069 -3.99762 69.8373
lradius 71.6086
lwrist 22.4781
lhand -24.7853 39.8108
lfingers 7.12502
lthumb 1.71891 69.7836
rfemur -26.357 -6.87792 26.0743
rtibia 27.2931
rfoot -9.44252 -15.0411
rtoes -1.12091
lfemur -9.38442 -0.441565 -13.2517
ltibia 41.5417
lfoot 29.792 -26.1395
ltoes 17.1763
41
root 11.6294 18.4922 5.84218 -169.54 -12.6766 180.285
lowerback 2.33903 -0.281423 1.78977
upperback 0.751972 -0.49362 4.14669
thorax -0.516179 -0.328979 3.27232
lowerneck -19.6102 -5.5316 -11.1815
upperneck 27.338 -7.69636 7.49687
head 13.181 -3.94442 3.39457
rclavicle 1.19271e-015 6.36111e-015
rhumerus 37.2609 -0.971514 -67.0185
rradius 77.6405
rwrist -26.3193
rhand -48.5572 28.1923
rfingers 7.12502
rthumb -21.2037 -0.668016
lclavicle 1.19271e-015 6.36111e-015
lhumerus 36.5126 -4.29378 69.643
lradius 71.0538
lwrist 22.7066
lhand -25.5319 40.6064
lfingers 7.12502
lthumb 0.997823 70.5838
rfemur -26.2238 -6.84422 25.8973
rtibia 27.3256
rfoot -9.64886 -15.0124
rtoes -1.35658
lfemur -10.0978 -0.496285 -13.2952
ltibia 42.3931
lfoot 29.849 -26.6544
ltoes 17.382
42
root 11.6359 18.5066 5.77834 -169.4 -12.6268 179.993
lowerback 2.06118 -0.295977 2.39716
upperback 1.11984 -0.498073 3.4291
thorax 0.00568342 -0.313348 2.18389
lowerneck -19.7994 -5.44616 -10.4788
upperneck 27.2124 -7.88356 7.86341
head 13.1732 -3.89552 3.38288
rclavicle 2.62396e-014 -9.38264e-014
rhumerus 38.362 -1.40532 -68.9697
rradius 76.924
rwrist -25.6108
rhand -48.8473 28.1511
rfingers 7.12502
rthumb -21.4824 -0.677722
lclavicle 2.62396e-014 -9.38264e-014
lhumerus 37.684 -4.67656 68.6462
lradius 70.379
lwrist 23.2248
lhand -26.4231 41.1344
lfingers 7.12502
lthumb 0.137101 71.1141
rfemur -26.0687 -6.97036 25.6558
rtibia 27.3347
rfoot -9.72094 -14.9691
rtoes -1.36226
lfemur -10.81 -0.25586 -13.4713
ltibia 43.1904
lfoot 30.2721 -26.7399
ltoes 16.2927
43
root 11.6397 18.5124 5.72697 -169.361 -12.6142 179.934
lowerback 3.16313 -0.0861013 1.22338
upperback 0.596823 -0.216709 4.41717
thorax -1.14717 -0.19229 3.87317
lowerneck -19.395 -5.57918 -11.3167
upperneck 27.6254 -7.75993 7.29088
head 13.259 -4.03656 3.32915
rclavicle 2.34566e-014 3.65764e-014
rhumerus 38.6938 -0.796063 -68.2487
rradius 76.1648
rwrist -25.3906
rhand -49.4634 28.1458
rfingers 7.12502
rthumb -22.074 -0.614309
lclavicle 2.34566e-014 3.65764e-014
lhumerus 37.2189 -4.78788 70.539
lradius 69.7267
lwrist 23.2821
lhand -27.4549 41.5017
lfingers 7.12502
lthumb -0.859456 71.4798
rfemur -25.9269 -7.38616 25.7384
rtibia 27.2433
rfoot -9.71415 -14.6759
rtoes 0.163414
lfemur -11.3742 -0.0731546 -13.3429
ltibia 43.9622
lfoot 29.9346 -26.4522
ltoes 15.7606
44
root 11.6454 18.5097 5.68324 -169.387 -12.6738 180.28
lowerback 3.63978 -0.10244 1.91956
upperback 0.559677 -0.202457 4.39298
thorax -1.45482 -0.191887 3.45878
lowerneck -19.4129 -5.59558 -11.282
upperneck 27.9004 -7.91205 7.43433
head 13.3996 -4.09705 3.35412
rclavicle 3.57812e-014 6.20208e-014
rhumerus 39.3801 -0.580666 -69.3352
rradius 75.2303
rwrist -25.4834
rhand -50.1904 29.4232
rfingers 7.12502
rthumb -22.7719 0.747213
lclavicle 3.57812e-014 6.20208e-014
lhumerus 37.6947 -4.85574 70.8521
lradius 68.9565
lwrist 23.1725
lhand -28.3017 42.2773
lfingers 7.12502
lthumb -1.67734 72.2504
rfemur -25.7664 -7.09377 26.122
rtibia 27.1808
rfoot -9.91557 -14.8791
rtoes 1.89789
lfemur -11.9569 0.0434646 -12.7141
ltibia 44.692
lfoot 27.9754 -26.7837
ltoes 14.5079
45
root 11.6523 18.511 5.633 -169.307 -12.6773 180.616
lowerback 3.75857 -0.116112 2.60581
upperback 0.626127 -0.200142 4.31856
thorax -1.45455 -0.197853 2.9954
lowerneck -19.5965 -5.53482 -11.1727
upperneck 28.1327 -7.96529 7.675
head 13.5478 -4.08352 3.42201
rclavicle 6.36111e-015 -6.04305e-014
rhumerus 40.0382 -0.429774 -70.3694
rradius 74.3674
rwrist -25.6911
rhand -50.6691 31.0579
rfingers 7.12502
rthumb -23.2312 2.43908
lclavicle 6.36111e-015 -6.04305e-014
lhumerus 38.2721 -5.06069 70.8519
lradius 68.0083
lwrist 23.0791
lhand -29.4189 43.2251
lfingers 7.12502
lthumb -2.75624 73.187
rfemur -25.6806 -6.15295 26.3693
rtibia 27.2071
rfoot -9.6761 -15.5667
rtoes -0.447035
lfemur -12.8792 0.495035 -12.2272
ltibia 45.3518
lfoot 27.264 -26.7178
ltoes 10.2376
46
root 11.6514 18.5084 5.5805 -169.047 -12.6272 180.547
lowerback 3.77797 -0.0196748 2.53705
upperback 0.604396 -0.077364 4.42041
thorax -1.49164 -0.139038 3.13421
lowerneck -19.373 -5.50106 -11.2998
upperneck 28.1256 -7.95014 7.77563
head 13.5067 -4.08843 3.48982
rclavicle -6.36111e-015 3.18055e-015
rhumerus 40.7056 -0.445977 -71.0396
rradius 73.5162
rwrist -25.3961
rhand -51.0286 31.3719
rfingers 7.12502
rthumb -23.576 2.79707
lclavicle -6.36111e-015 3.18055e-015
lhumerus 38.6533 -5.51443 71.1316
lradius 67.0862
lwrist 23.3803
lhand -30.8546 44.0052
lfingers 7.12502
lthumb -4.14278 73.9447
rfemur -25.7938 -5.9893 26.3306
rtibia 27.2217
rfoot -8.31426 -15.5012
rtoes -7.44817
lfemur -13.759 0.941834 -12.2946
ltibia 45.8778
lfoot 24.9542 -27.0054
ltoes 5.46058
47
root 11.6477 18.5082 5.52939 -168.894 -12.6926 180.246
lowerback 3.90754 -0.0333506 2.54654
upperback 0.656735 -0.0815154 4.25169
thorax -1.51064 -0.136404 2.95425
lowerneck -18.9529 -5.42856 -11.1817
upperneck 27.9464 -7.97079 7.89047
head 13.3443 -4.08334 3.51529
rclavicle 1.82882e-014 3.18055e-014
rhumerus 41.5463 -0.606723 -72.426
rradius 72.424
rwrist -24.9702
rhand -51.3099 31.5594
rfingers 7.12502
rthumb -23.8459 3.01951
lclavicle 1.82882e-014 3.18055e-014
lhumerus 39.1747 -5.88798 71.1418
lradius 66.2186
lwrist 23.6235
lhand -31.6075 44.7942
lfingers 7.12502
lthumb -4.86978 74.7182
rfemur -25.7575 -6.36173 26.1164
rtibia 27.2392
rfoot -6.86105 -15.0382
rtoes -14.4088
lfemur -14.2501 1.05324 -12.5365
ltibia 46.2875
lfoot 21.7451 -26.9097
ltoes 3.45716
